<svg width="38" height="47" viewBox="0 0 38 47" fill="none" xmlns="http://www.w3.org/2000/svg">
<rect width="38" height="47" fill="#F5F5F5"/>
<g id="Home" clip-path="url(#clip0_0_1)">
<rect width="430" height="932" transform="translate(-48 -274)" fill="white"/>
<g id="Frame 71">
<g id="Furniture" filter="url(#filter0_d_0_1)">
<rect x="-22" y="-11" width="80" height="80" rx="10" fill="white"/>
<g id="Logo Furniture">
<path id="Vector 37" d="M13 18H23" stroke="#6FC9F8" stroke-width="3"/>
<path id="Vector 36" d="M18.093 9.54154H11.4186L15 2H21.6744L24.7674 9.54154H18.093ZM18.093 9.54154V19.0677H1H36V38.2523H30.9535M1 38.2523H5.72093M5.72093 38.2523L2.13953 45M5.72093 38.2523H30.9535M30.9535 38.2523L34.2093 45" stroke="#6FC9F8" stroke-width="3"/>
<path id="Vector 38" d="M36 30V39H1" stroke="#6FC9F8" stroke-width="3"/>
<path id="Vector 39" d="M5 39L2 46" stroke="#6FC9F8" stroke-width="3"/>
<path id="Vector 40" d="M31 39L34 45" stroke="#6FC9F8" stroke-width="3"/>
</g>
<rect x="-21.5" y="-10.5" width="79" height="79" rx="9.5" stroke="white"/>
</g>
</g>
</g>
<defs>
<filter id="filter0_d_0_1" x="-26" y="-11" width="88" height="88" filterUnits="userSpaceOnUse" color-interpolation-filters="sRGB">
<feFlood flood-opacity="0" result="BackgroundImageFix"/>
<feColorMatrix in="SourceAlpha" type="matrix" values="0 0 0 0 0 0 0 0 0 0 0 0 0 0 0 0 0 0 127 0" result="hardAlpha"/>
<feOffset dy="4"/>
<feGaussianBlur stdDeviation="2"/>
<feComposite in2="hardAlpha" operator="out"/>
<feColorMatrix type="matrix" values="0 0 0 0 0 0 0 0 0 0 0 0 0 0 0 0 0 0 0.25 0"/>
<feBlend mode="normal" in2="BackgroundImageFix" result="effect1_dropShadow_0_1"/>
<feBlend mode="normal" in="SourceGraphic" in2="effect1_dropShadow_0_1" result="shape"/>
</filter>
<clipPath id="clip0_0_1">
<rect width="430" height="932" fill="white" transform="translate(-48 -274)"/>
</clipPath>
</defs>
</svg>
